<svg width="420" height="120" viewBox="0 0 420 120" fill="none" xmlns="http://www.w3.org/2000/svg">
  <g fill="#FFFFFF">
    <path d="M18 16H73L94 83H59L18 16Z"/>
    <path d="M86 16H203C225 16 241 31 241 53C241 75 225 90 203 90H150L144 104H94L116 16H161L153 63H195C201 63 206 59 206 53C206 47 201 43 195 43H124L86 16Z"/>
    <path d="M251 16H360L376 104H338L334 84H279L266 104H227L251 16ZM290 57H331L326 34H302L290 57Z"/>
    <path d="M379 16H402L390 104H367L379 16Z"/>
  </g>
  <text x="20" y="116" fill="#FFFFFF" font-family="Arial, Helvetica, sans-serif" font-size="24" font-weight="700" letter-spacing="12">AUSTRALIA</text>
</svg>
